# Blender v3.1.2 OBJ File: ''
# www.blender.org
mtllib room.mtl
o Plane
v -5.301985 0.000000 5.301985
v 5.301985 0.000000 5.301985
v -5.301985 0.000000 -5.301985
v 5.301985 0.000000 -5.301985
v -5.301985 4.827612 5.301985
v -5.301985 4.827612 -5.301985
v 5.301985 4.827612 -5.301985
v -5.376223 -0.074238 -5.376223
v -5.392907 -0.090923 5.301985
v 5.301985 -0.128584 5.301985
v 5.301985 -0.090923 -5.392907
v -5.392907 4.827612 -5.392907
v -5.430569 4.827612 5.301985
v 5.301985 4.827612 -5.430569
vt 0.000000 0.000000
vt 0.000000 1.000000
vt 1.000000 1.000000
vt 1.000000 0.000000
vt 0.000000 1.000000
vt 1.000000 1.000000
vt 0.000000 0.000000
vt 0.000000 0.000000
vt 1.000000 0.000000
vt 1.000000 1.000000
vt 0.000000 1.000000
vt 1.000000 1.000000
vt 0.000000 1.000000
vt 0.000000 0.000000
vn 0.0000 -1.0000 0.0000
vn 0.0000 0.0000 -1.0000
vn -1.0000 0.0000 0.0000
vn 0.0025 1.0000 0.0025
vn 0.0025 0.0055 1.0000
vn 1.0000 0.0055 0.0025
usemtl None
s off
f 1/1/1 3/2/1 4/3/1 2/4/1
f 3/2/2 6/5/2 7/6/2 4/3/2
f 1/1/3 5/7/3 6/5/3 3/2/3
f 9/8/4 10/9/4 11/10/4 8/11/4
f 8/11/5 11/10/5 14/12/5 12/13/5
f 9/8/6 8/11/6 12/13/6 13/14/6
f 4/3/3 7/6/3 14/12/3 11/10/3
f 7/6/1 6/5/1 12/13/1 14/12/1
f 1/1/2 2/4/2 10/9/2 9/8/2
f 5/7/2 1/1/2 9/8/2 13/14/2
f 6/5/1 5/7/1 13/14/1 12/13/1
f 2/4/3 4/3/3 11/10/3 10/9/3
