# Blender v3.1.2 OBJ File: ''
# www.blender.org
mtllib temp.mtl
o Cube_Cube.001
v -9.614956 9.668558 9.614956
v 9.614956 9.668558 9.614956
v 9.614956 9.668558 -9.614956
v 9.614956 0.000000 -9.614956
v -9.614956 0.000000 -9.614956
v 9.614956 0.000000 9.614956
v -9.614956 0.000000 9.614956
vt 0.000000 0.000000
vt 0.000000 1.000000
vt 1.000000 1.000000
vt 1.000000 0.000000
vt 1.000000 1.000000
vt 1.000000 0.000000
vt 0.000000 0.000000
vn 0.0000 -1.0000 0.0000
vn 1.0000 0.0000 0.0000
vn 0.0000 0.0000 1.0000
g Cube_Cube.001_Material.004
usemtl Material.004
s off
f 7/1/1 5/2/1 4/3/1 6/4/1
g Cube_Cube.001_Material.005
usemtl Material.005
f 4/3/2 3/5/2 2/6/2 6/4/2
f 6/4/3 2/6/3 1/7/3 7/1/3
